<svg xmlns="http://www.w3.org/2000/svg" viewBox="0 0 1536 840" preserveAspectRatio="xMidYMid" width="1536" height="840" style="shape-rendering: auto; display: block; background: rgb(255, 255, 255);"><g data-idx="1"><linearGradient y2="0" y1="0" x2="1" x1="0" id="lg-nq4q5u6dq7r" data-idx="2">
  <stop offset="0" stop-color="#ff00ff" data-idx="3"></stop>
  <stop offset="1" stop-color="#00ffff" data-idx="4"></stop>
</linearGradient><path opacity="0.4" fill="url(#lg-nq4q5u6dq7r)" d="M 0 0 L 0 482.265 Q 153.6 580.072 307.2 538.676 T 614.4 369.752 T 921.6 403.641 T 1228.8 374.348 T 1536 197.544 L 1536 0 Z" data-idx="5">
  
</path><path opacity="0.4" fill="url(#lg-nq4q5u6dq7r)" d="M 0 0 L 0 498.8 Q 153.6 515.96 307.2 491.794 T 614.4 490.836 T 921.6 435.671 T 1228.8 302.776 T 1536 301.761 L 1536 0 Z" data-idx="7">
  
</path><path opacity="0.4" fill="url(#lg-nq4q5u6dq7r)" d="M 0 0 L 0 577.036 Q 153.6 549.797 307.2 523.689 T 614.4 402.618 T 921.6 464.068 T 1228.8 315.897 T 1536 262.046 L 1536 0 Z" data-idx="9">
  
</path><path opacity="0.4" fill="url(#lg-nq4q5u6dq7r)" d="M 0 0 L 0 531.983 Q 153.6 512.924 307.2 475.823 T 614.4 407.165 T 921.6 441.405 T 1228.8 322.751 T 1536 306.875 L 1536 0 Z" data-idx="11">
  
</path><path opacity="0.4" fill="url(#lg-nq4q5u6dq7r)" d="M 0 0 L 0 579.923 Q 153.6 537.024 307.2 500.447 T 614.4 398.378 T 921.6 390.88 T 1228.8 372.337 T 1536 355.259 L 1536 0 Z" data-idx="13">
  
</path><g data-idx="15"></g></g><text data-watermark="true" text-anchor="middle" dominant-baseline="middle" stroke-opacity="0.1" fill="black" fill-opacity="0.1" stroke="white" stroke-width="1" font-size="15.0" x="768.0" y="420.0" data-idx="16" style="opacity: 1; font-size: 15px;">LOADING.IO</text></svg>